<svg width="16" height="17" viewBox="0 0 16 17" fill="none" xmlns="http://www.w3.org/2000/svg">
<path d="M16 8.5C16 10.6217 15.1571 12.6566 13.6569 14.1569C12.1566 15.6571 10.1217 16.5 8 16.5C5.87827 16.5 3.84344 15.6571 2.34315 14.1569C0.842855 12.6566 0 10.6217 0 8.5C0 6.37827 0.842855 4.34344 2.34315 2.84315C3.84344 1.34285 5.87827 0.5 8 0.5C10.1217 0.5 12.1566 1.34285 13.6569 2.84315C15.1571 4.34344 16 6.37827 16 8.5ZM8 4.5C7.87361 4.50007 7.74863 4.52662 7.63312 4.57793C7.51761 4.62924 7.41413 4.70418 7.32934 4.79791C7.24456 4.89165 7.18035 5.0021 7.14084 5.12217C7.10134 5.24223 7.08743 5.36923 7.1 5.495L7.45 9.002C7.46176 9.13977 7.5248 9.26811 7.62664 9.36164C7.72849 9.45516 7.86173 9.50705 8 9.50705C8.13827 9.50705 8.27151 9.45516 8.37336 9.36164C8.4752 9.26811 8.53824 9.13977 8.55 9.002L8.9 5.495C8.91257 5.36923 8.89866 5.24223 8.85915 5.12217C8.81965 5.0021 8.75544 4.89165 8.67066 4.79791C8.58587 4.70418 8.48239 4.62924 8.36688 4.57793C8.25137 4.52662 8.12639 4.50007 8 4.5ZM8.002 10.5C7.73678 10.5 7.48243 10.6054 7.29489 10.7929C7.10736 10.9804 7.002 11.2348 7.002 11.5C7.002 11.7652 7.10736 12.0196 7.29489 12.2071C7.48243 12.3946 7.73678 12.5 8.002 12.5C8.26722 12.5 8.52157 12.3946 8.70911 12.2071C8.89664 12.0196 9.002 11.7652 9.002 11.5C9.002 11.2348 8.89664 10.9804 8.70911 10.7929C8.52157 10.6054 8.26722 10.5 8.002 10.5Z" fill="#495057"/>
</svg>
